<?xml version="1.0" encoding="UTF-8" standalone="no"?>
<!DOCTYPE svg PUBLIC "-//W3C//DTD SVG 1.1//EN" "http://www.w3.org/Graphics/SVG/1.1/DTD/svg11.dtd">
<svg width="100%" height="100%" viewBox="0 0 616 616" version="1.1" xmlns="http://www.w3.org/2000/svg" xmlns:xlink="http://www.w3.org/1999/xlink" xml:space="preserve" xmlns:serif="http://www.serif.com/" style="fill-rule:evenodd;clip-rule:evenodd;stroke-linejoin:round;stroke-miterlimit:2;">
    <g transform="matrix(25,0,0,25,-91,-91)">
        <path d="M16,16C16,13.791 17.791,12 20,12C22.209,12 24,13.791 24,16C24,18.209 22.209,20 20,20C17.791,20 16,18.209 16,16Z" style="fill:rgb(26,188,254);"/>
    </g>
    <g transform="matrix(25,0,0,25,-91,-91)">
        <path d="M8,24C8,21.791 9.791,20 12,20L16,20L16,24C16,26.209 14.209,28 12,28C9.791,28 8,26.209 8,24Z" style="fill:rgb(10,207,131);"/>
    </g>
    <g transform="matrix(25,0,0,25,-91,-91)">
        <path d="M16,4L16,12L20,12C22.209,12 24,10.209 24,8C24,5.791 22.209,4 20,4L16,4Z" style="fill:rgb(255,114,98);"/>
    </g>
    <g transform="matrix(25,0,0,25,-91,-91)">
        <path d="M8,8C8,10.209 9.791,12 12,12L16,12L16,4L12,4C9.791,4 8,5.791 8,8Z" style="fill:rgb(242,78,30);"/>
    </g>
    <g transform="matrix(25,0,0,25,-91,-91)">
        <path d="M8,16C8,18.209 9.791,20 12,20L16,20L16,12L12,12C9.791,12 8,13.791 8,16Z" style="fill:rgb(162,89,255);"/>
    </g>
</svg>
