<?xml version="1.0" encoding="UTF-8" standalone="no"?>
<!DOCTYPE svg PUBLIC "-//W3C//DTD SVG 1.1//EN" "http://www.w3.org/Graphics/SVG/1.1/DTD/svg11.dtd">
<svg width="100%" height="100%" viewBox="0 0 800 500" version="1.1" xmlns="http://www.w3.org/2000/svg" xmlns:xlink="http://www.w3.org/1999/xlink" xml:space="preserve" xmlns:serif="http://www.serif.com/" style="fill-rule:evenodd;clip-rule:evenodd;stroke-linejoin:round;stroke-miterlimit:2;">
    <g transform="matrix(25,0,0,25,0,-161)">
        <path d="M9,13.7C9.933,9.967 12.267,8.1 16,8.1C21.6,8.1 22.3,12.3 25.1,13C26.967,13.467 28.6,12.767 30,10.9C29.067,14.633 26.733,16.5 23,16.5C17.4,16.5 16.7,12.3 13.9,11.6C12.033,11.133 10.4,11.833 9,13.7ZM2,22.1C2.933,18.367 5.267,16.5 9,16.5C14.6,16.5 15.3,20.7 18.1,21.4C19.967,21.867 21.6,21.167 23,19.3C22.067,23.033 19.733,24.9 16,24.9C10.4,24.9 9.7,20.7 6.9,20C5.033,19.533 3.4,20.233 2,22.1Z" style="fill:rgb(68,168,179);fill-rule:nonzero;"/>
    </g>
</svg>
